<?xml version="1.0" encoding="utf-8"?>
<!-- Generator: Adobe Illustrator 27.0.1, SVG Export Plug-In . SVG Version: 6.00 Build 0)  -->
<svg version="1.1" id="Layer_1" xmlns="http://www.w3.org/2000/svg" xmlns:xlink="http://www.w3.org/1999/xlink" x="0px" y="0px"
	 viewBox="0 0 236.9 256" style="enable-background:new 0 0 236.9 256;" xml:space="preserve">
<style type="text/css">
	.st0{fill:#EE3D96;}
	.st1{opacity:0.5;fill:#EE3D96;enable-background:new    ;}
	.st2{opacity:0.25;fill:#EE3D96;enable-background:new    ;}
</style>
<path class="st0" d="M236.2,48.9c0-0.9,0-1.7,0-2.6c-0.1-0.9-0.2-1.6-0.2-2.4c-0.1-0.3-0.1-0.7-0.1-1c-0.1-0.5-0.2-0.9-0.2-1.4
	c0-0.3-0.1-0.5-0.1-0.8c-0.1-0.4-0.2-0.7-0.2-1c-0.1-0.1-0.1-0.2-0.1-0.4c-0.1-0.4-0.1-0.7-0.2-1c0-0.2,0-0.3,0-0.5
	c0-0.2,0-0.3,0-0.4c-0.1-0.1-0.2-0.2-0.2-0.4c0-0.1-0.1-0.2-0.1-0.4c0-0.1-0.1-0.2-0.1-0.4c-0.3-0.9-0.5-1.7-0.8-2.6
	c-0.8-1.6-1.6-3.3-2.4-4.9c-0.1-0.2-0.3-0.3-0.4-0.5c-0.2-0.3-0.4-0.5-0.6-0.9c-0.2-0.2-0.3-0.4-0.5-0.5c-1-1-2.1-1.8-3.2-2.8
	c-0.2-0.2-0.4-0.3-0.5-0.4c-2.2-1.1-4.3-2.2-6.6-3.3c-1.9-0.5-3.7-1.1-5.5-1.4c-3.8-0.7-7.5-1.3-11.2-1.7c-4.1-0.5-8.3-0.8-12.4-1
	c-4.8-0.2-9.6-0.3-14.4-0.4c-8.2-0.1-16.4-0.2-24.6-0.2c-3.8,0-7.6,0.1-11.4,0.2c-3.7,0.1-7.5,0.1-11.2,0.4
	c-8.4,0.7-16.7,1.2-24.8,3.7c-3.5,1.1-6.9,2.6-9.9,5c-3.3,2.7-5.5,6.3-6.7,10.6c-1.6,6.1-1.7,12.4-1.4,18.6
	c0.2,3.7,0.8,7.5,1.5,11.1c0.8,4,2.8,7.4,5.8,10.1c0.1,0,0.1,0.1,0.2,0.3c2,1.3,3.8,2.5,5.8,3.7c0.2,0,0.4,0,0.6,0.1
	c0.4,0.2,0.7,0.4,0.9,0.5c0,0,0.1,0,0.2,0c0.2,0.1,0.3,0.1,0.4,0.2c0.9,0.2,1.7,0.5,2.6,0.8c2.7,0.7,5.4,1.3,8.1,2
	c0.5,0.2,1.1,0.3,1.8,0.4c0.3,0.1,0.4,0.1,0.5,0.2c1.3,0.1,2.5,0.2,3.8,0.3c0.1,0,0.2,0,0.3,0c2.3,0.2,4.4,0.4,6.6,0.7
	c0.8,0.1,0.9,0.5,0.9,1.2c0,2.4,0,4.8,0,7.3c0.1,0,0.1,0,0.2,0c-0.1,8.1-0.2,16.2,0.2,24.1c0,2.6,0.1,5.3,0.2,8
	c0,3.6,0,7.1,0.2,10.6c0.3,4.8,0.5,9.4,0.9,14.1c0.8,9.6,1.8,19.1,4.6,28.2c1.6,5.2,3.8,10,7.2,14.1c0.5,0.8,1.1,1.3,1.7,2.1
	c0,0.1,0,0.2,0,0.2c1.5,0.9,2.9,2,4.4,2.6c2.5,1,5,1.8,7.7,2.7c0.3,0.1,0.4,0.2,0.6,0.2c4.1,0.5,8.1,0.9,12.3,0.4c0.4,0,0.5,0,0.7,0
	c2.2-0.5,4.5-0.9,6.7-1.5c1.8-0.5,3.5-1.4,5.3-2.3c0.3-0.1,0.5-0.2,0.7-0.3c1.5-1.3,2.9-2.6,4.5-4c0.2-0.2,0.3-0.3,0.4-0.4
	c1.4-2.4,3-4.7,4.2-7.1c1.1-2.1,1.8-4.3,2.7-6.6c0.4-1.5,0.7-2.7,1.1-4c-0.1,0-0.1-0.1,0-0.1c0-0.2,0-0.3,0.1-0.7
	c0-0.2,0-0.3,0.1-0.5c0-0.1,0.1-0.2,0.1-0.4c0-0.1,0-0.2,0.1-0.4c0-0.1,0.1-0.2,0.1-0.4c0-0.1,0-0.2,0.1-0.4
	c0.1-0.1,0.1-0.2,0.1-0.4s0-0.3,0.1-0.5c0-0.2,0-0.4,0.1-0.7c0-0.2,0.1-0.3,0.1-0.5c0.1-0.1,0.1-0.2,0.1-0.4c0-0.3,0-0.5,0.1-0.8
	c0-0.2,0-0.4,0.1-0.7c0-0.2,0.1-0.3,0.1-0.5s0.1-0.4,0.1-0.7s0.1-0.3,0.1-0.5c0.1-0.2,0.1-0.4,0.1-0.7c0-0.2,0.1-0.3,0.1-0.5
	c0.1-0.2,0.1-0.3,0.1-0.4c0.3-3.3,0.7-6.6,1.1-10c0.1-1,0.2-2.1,0.3-3.3c0.1-0.4,0.1-0.5,0.1-0.8c0.3-4.5,0.5-8.8,0.8-13.4
	c0.1-0.3,0.1-0.4,0.1-0.5c0.1-3.8,0.2-7.6,0.3-11.4c0-0.7,0.1-1.3,0.1-2.2c0-0.3,0-0.4,0-0.5c0-4.5,0-8.9,0-13.6c0-0.3,0-0.4,0-0.5
	c0-3.3-0.1-6.4-0.1-9.7c0-1.2-0.1-2.4-0.1-3.7c0-0.4,0-0.5,0-0.8c0-0.7,0-1.2-0.2-2c-0.1,0-0.1,0-0.2,0c0.1-2,0.1-3.9,0-5.9
	c-0.1-0.9,0.2-1.2,0.9-1.2c1.6-0.1,3.3-0.3,4.9-0.4c0.8-0.1,1.5-0.2,2.3-0.3c0.3,0,0.5,0,0.7,0c3.7-0.8,7.3-1.5,10.5-1.8
	c0.3-0.1,0.6-0.1,1.1-0.2c0.3-0.1,0.5-0.2,0.7-0.2c1-0.4,2-0.8,3.2-1.2c0.5-0.2,0.9-0.3,1.3-0.4c2.8-1.5,5.5-2.9,7.8-5.4
	c0.2-0.3,0.4-0.4,0.6-0.5c0.7-1.2,1.5-2.3,2.1-3.5s1.1-2.6,1.7-4c0.1-0.3,0.2-0.5,0.2-0.7s0-0.2,0.1-0.4c0-0.1,0.1-0.2,0.1-0.4
	c0.1-0.5,0.2-1,0.3-1.4c0.1-0.1,0.1-0.2,0.1-0.4c0-0.3,0-0.5,0.1-0.8c0.1-0.1,0.1-0.2,0.1-0.4c0-0.4,0-0.7,0.1-1
	c0.1-0.1,0.1-0.2,0.1-0.4c0-0.4,0-0.8,0.1-1.2c0.1-0.3,0.1-0.7,0.1-1c0-0.5,0-1.1,0.1-1.6s0.1-0.9,0.1-1.4c0.1-1,0.1-1.8,0.1-2.9
	c0.1-0.2,0.1-0.3,0.1-0.4C236.3,50.8,236.2,49.9,236.2,48.9z"/>
<path class="st0" d="M78.1,83.9c0-0.3,0-0.4,0-0.8c0-1.7-0.1-3.4-0.2-5.1c0-0.4,0-0.7,0-1c-0.2-0.9-0.3-1.6-0.4-2.4
	c-0.4-5-0.7-9.9-1.1-14.9c-0.1-1.2-0.2-2.5-0.4-3.9c-0.1-0.5-0.1-0.9-0.1-1.2c-0.1-1.2-0.3-2.3-0.4-3.4c-0.3-1.7-0.6-3.4-1-5.1
	c-0.6-2.7-1.3-5.4-2-8.4c-0.1-0.3-0.1-0.4-0.1-0.5c-0.5-1.3-1.1-2.7-1.6-4c-1.4-3.4-3.1-6.4-5.4-9.2c-0.3-0.2-0.4-0.4-0.5-0.7
	c-0.5-0.5-1.1-1.1-1.7-1.6c-0.2-0.2-0.3-0.3-0.4-0.4c-1.6-1.1-3.2-2.1-4.9-3c-1.2-0.7-2.4-1.1-3.7-1.6c-0.9-0.2-1.8-0.3-2.6-0.4
	c-4-0.8-7.9-1.2-11.9-0.7c-2.6,0.3-5.3,0.4-7.8,1.1c-7.1,1.8-12.4,6.5-15.8,13.6c-3.1,6.3-4.8,13.1-5.8,20.1
	c-0.7,4.5-1.2,8.9-1.7,13.4c-0.3,2.5-0.4,4.9-0.5,7.4C7.9,76.7,7.7,82.4,7.5,88c0,1.4-0.1,2.7-0.1,4.1l0.1,0.1
	c-0.1,11.3-0.2,22.7-0.1,34c0,4.1,0.2,8.3,0.4,12.4c0.3,5.9,0.7,11.7,1.3,17.6c0.8,7.3,1.9,14.4,4,21.4c1.7,5.8,4.1,11.1,8.2,15.3
	c0.4,0.4,0.8,0.9,1.2,1.3c0.5,0.4,1,0.8,1.6,1.2c0.2,0.1,0.3,0.2,0.4,0.3c3.4,2.1,7,3.5,10.8,4.1c0.5,0.1,1,0.2,1.7,0.3
	c0.2,0.1,0.3,0.1,0.4,0.1c4.1-0.1,8.2-0.2,12.5-0.3c0.2,0,0.3,0,0.4,0c1.5-0.4,2.9-0.8,4.3-1.2c2.9-0.9,5.5-2.2,8-4.2
	c0.3-0.2,0.5-0.3,0.7-0.4c0.6-0.7,1.2-1.3,1.9-2.1c0.2-0.2,0.4-0.3,0.5-0.4c1.5-2.6,3.2-5.2,4.6-7.9c0.9-1.7,1.4-3.7,2.2-5.6
	c0.1-0.2,0.1-0.3,0.1-0.4c0.6-3,1.3-6,2-9c0.3-1.4,0.5-2.8,0.8-4.3c0.2-1.1,0.3-2,0.5-2.8c0-0.3,0-0.7,0.1-1.1
	c0-0.4,0.1-0.8,0.1-1.2c0-0.4,0-0.8,0.1-1.2c0.1-0.2,0.1-0.4,0.1-0.7c0-0.4,0-0.8,0.1-1.2c0-0.3,0.1-0.7,0.1-1c0-0.5,0-1,0.1-1.4
	c0-0.3,0.1-0.7,0.1-1c0-0.5,0-1,0.1-1.4c0-0.4,0.1-0.8,0.1-1.3c0.1-0.2,0.1-0.3,0.1-0.4c0-0.3,0-0.5,0-0.9c0-0.4,0.1-0.8,0.1-1.2
	c0-0.7,0-1.2,0.1-1.8c0-0.5,0.1-0.9,0.1-1.4c0-0.8,0-1.4,0.1-2.2c0-0.7,0.1-1.2,0.1-1.8c0-0.9,0-1.7,0.1-2.6c0-0.5,0.1-1.1,0.1-1.7
	c0.1-0.2,0.1-0.3,0.1-0.4c0-1.2,0-2.4,0-3.7c0.1-1.2,0.2-2.3,0.2-3.5c0-0.9,0-1.7,0-2.6c0.1-1.3,0.1-2.4,0.1-3.8
	c0.1-0.3,0.1-0.4,0.1-0.5c0.1-2.8,0.1-5.6,0.1-8.5c0-1.6,0-3.3,0-5.1c0-0.3,0-0.4,0-0.5c0-4.3-0.1-8.8-0.2-13.2H78
	c0.1,0,0.2-0.1,0.3-0.1c0-0.1,0-0.2,0-0.4c0-1.1,0-2.2,0-3.3C78.2,88.1,78.1,86.1,78.1,83.9z"/>
<path class="st1" d="M54.2,16.6c-0.8-0.1-1.7-0.2-2.5-0.4c-3.9-0.8-7.9-1.2-11.9-0.7c-2.6,0.3-5.2,0.4-7.8,1.1
	c-7.1,1.8-12.4,6.5-15.8,13.6c-3.1,6.3-4.7,13.1-5.8,20.1c-0.7,4.5-1.2,8.9-1.7,13.4C8.4,66,8.3,68.5,8.2,71
	C8,76.6,7.8,82.3,7.5,87.9c-0.1,1.3-0.1,2.6-0.2,4.1c0,11.5,0,22.9,0,34.3c0,4.1,0.2,8.3,0.4,12.4c0.4,5.9,0.7,11.7,1.3,17.6
	c0.7,7.3,1.8,14.4,4,21.4c1.7,5.8,4.1,11.1,8.2,15.3c0.4,0.4,0.8,0.8,1.1,1.3c-1.7-0.7-3.4-1.5-5.1-2.3c-0.2-0.2-0.4-0.4-0.7-0.7
	c-1.7-1.7-3.3-3.4-5-5c-0.2-0.2-0.3-0.4-0.6-0.8c-1.4-2.6-2.7-5.1-4-7.6c0-0.1-0.1-0.2-0.1-0.5c-0.2-0.7-0.4-1.2-0.6-1.7
	c-1-3.8-2-7.7-3-11.5c0-0.2,0-0.4-0.1-0.8c-0.3-1.6-0.5-3-0.7-4.5c0-0.2-0.1-0.5-0.2-0.8c0-0.2,0-0.4,0-0.7c0-0.3-0.1-0.7-0.2-1
	c0-0.2,0-0.4,0-0.7c0-0.3-0.1-0.5-0.1-1c0-0.3-0.1-0.7-0.1-1s-0.1-0.5-0.1-1c0-0.3-0.1-0.7-0.1-1c-0.1-0.4-0.2-0.8-0.3-1.2
	c0-0.3,0-0.7,0-0.9c0-0.1,0-0.2,0-0.5c-0.3-4.7-0.6-9.1-0.9-13.6c0-0.1,0-0.2-0.1-0.5c-0.2-4.7-0.3-9.1-0.5-13.6c0-0.1,0-0.2,0-0.5
	C0.1,116.9,0,112.5,0,108c0-0.1,0-0.2,0-0.5c0-4.7,0-9.1,0-13.5c0-0.1,0-0.2,0.1-0.5c0-2.5,0-4.8,0-7.2c0-1.4,0.1-2.8,0.2-4.2
	c0-0.8,0-1.4,0-2.1c0-0.2,0-0.3,0-0.7c0.2-4.6,0.4-9,0.6-13.4c0.1-0.2,0.2-0.4,0.2-0.8c0.1-1.7,0.2-3.4,0.4-5
	c0.2-2.8,0.5-5.5,0.8-8.4c0-0.1,0.1-0.2,0.2-0.5c0.1-0.7,0.1-1.1,0.2-1.5c0.7-4,1.5-7.9,2.2-11.9c0-0.1,0-0.2,0.1-0.4
	c0.6-2,1.1-3.9,1.8-5.6c1.1-2.7,2.3-5.3,3.5-8c0.1-0.1,0.2-0.2,0.3-0.4c0.3-0.4,0.4-0.9,0.6-1.2c0.1-0.1,0.2-0.2,0.4-0.4
	c2.1-2.5,4.2-4.9,7-6.4c1.8-1,3.7-1.7,5.5-2.6c0.1,0,0.2,0,0.5-0.1c1.6-0.3,3.1-0.7,4.5-0.9c0.2,0,0.3-0.1,0.5-0.2
	c0.7,0,1.2-0.1,1.8-0.1c0.1,0,0.3,0,0.5-0.1c1.8-0.1,3.4-0.1,5.1-0.2c0.1,0.1,0.2,0.1,0.5,0.2c1.4,0.1,2.6,0.1,3.8,0.2
	c2.9,0.3,5.7,1,8.4,2.1c0.1,0,0.2,0,0.4,0.1C51.5,15,52.9,15.8,54.2,16.6z"/>
<path class="st2" d="M236.5,193.3c0-0.2,0-0.3,0-0.4c-0.6-1.8-1-3.5-1.5-5.2c-1.1-3.5-2.8-6.6-5.4-9.7c-0.3-0.3-0.4-0.7-0.6-0.9
	c-0.8-0.8-1.7-1.4-2.6-2.3c-0.3-0.2-0.4-0.4-0.6-0.7c-3.3-1.8-6.7-3.9-10.2-5.5c-2.2-1.1-4.7-1.7-7.2-2.7c-0.3-0.1-0.4-0.1-0.6-0.1
	c-3.9-0.8-7.6-1.6-11.5-2.4c-1.8-0.3-3.6-0.7-5.6-1c-1.4-0.2-2.5-0.3-3.6-0.7c-0.4,0-0.8,0-1.4-0.1c-0.6,0-1-0.1-1.5-0.1
	c-0.6,0-1,0-1.5-0.1c-0.3-0.1-0.6-0.1-0.8-0.1c-0.6,0-1,0-1.5-0.1c-0.4,0-0.8-0.1-1.3-0.1c-0.7,0-1.3,0-1.8-0.1
	c-0.4,0-0.8-0.1-1.3-0.1c-0.7,0-1.3,0-1.8-0.1c-0.6,0-1-0.1-1.7-0.1c-0.3-0.1-0.4-0.1-0.6-0.1c-0.4,0-0.7,0-1.1,0
	c-0.6,0-1-0.1-1.5-0.1c-0.8,0-1.5,0-2.4-0.1c-0.7,0-1.1-0.1-1.8-0.1c-1,0-1.8,0-2.8-0.1c-0.8,0-1.5-0.1-2.4-0.1
	c-1.1,0-2.2,0-3.3-0.1c-0.7,0-1.4-0.1-2.2-0.1c-0.3-0.1-0.4-0.1-0.6-0.1c-1.5,0-3.1,0-4.7,0c-1.5-0.1-2.9-0.2-4.5-0.2
	c-1.1,0-2.2,0-3.3,0c-1.7-0.1-3.1-0.1-4.9-0.1c-0.4-0.1-0.6-0.1-0.7-0.1c-3.6-0.1-7.2-0.1-10.8-0.1c-2.1,0-4.2,0-6.5,0
	c-0.4,0-0.6,0-0.7,0c-5.5,0-11.2,0.1-16.8,0.2v-0.1c0,0-0.1,0-0.3-0.7c-0.1,0-0.3,0-0.6,0c-1.4,0-2.8,0-4.2,0
	c-2.6,0.1-5.3,0.2-8.1,0.2c-0.4,0-0.6,0-1,0c-2.2,0-4.3,0.1-6.5,0.2c-0.6,0-0.8,0-1.3,0c-1.1,0.2-2.1,0.3-3.1,0.4
	c-6.4,0.4-12.7,0.9-19.1,1.3c-1.5,0.1-3.2,0.2-5,0.4c-0.7,0.1-1.1,0.1-1.5,0.1c-1.5,0.1-2.9,0.3-4.3,0.4c-2.2,0.3-4.3,0.8-6.5,1.2
	c-3.5,0.8-7,1.6-10.7,2.4c-0.4,0.1-0.6,0.1-0.7,0.1c-1.7,0.7-3.5,1.3-5.1,2c-4.3,1.7-8.2,3.8-11.8,6.5c-0.3,0.3-0.6,0.4-0.8,0.7
	c-0.7,0.7-1.4,1.3-2.1,2.1c-0.3,0.2-0.4,0.3-0.6,0.4c-1.4,2-2.6,3.9-3.9,6c-0.8,1.4-1.4,2.9-2.1,4.5c-0.3,1.1-0.4,2.2-0.6,3.1
	c-1,4.9-1.5,9.6-0.8,14.4c0.4,3.1,0.6,6.4,1.4,9.4c2.4,8.6,8.3,15.1,17.4,19.2c8.1,3.8,16.8,5.9,25.7,7.1c5.7,0.9,11.4,1.4,17.1,2.1
	c3.2,0.3,6.3,0.4,9.5,0.7c7.2,0.3,14.5,0.7,21.7,0.9c1.8,0,3.5,0.1,5.3,0.1c0.1-0.1,0.3-0.3,0.4-0.4c-0.2,0.2-0.4,0.4-0.6,0.7
	c14.6,0.1,29.2,0.2,43.8,0.1c5.3,0,10.6-0.2,15.9-0.4c7.5-0.3,15-0.9,22.5-1.6c9.3-1,18.5-2.3,27.4-4.9c7.4-2.1,14.2-5,19.6-10
	c0.6-0.4,1.1-1,1.7-1.4c0.6-0.7,1-1.2,1.5-2c0.1-0.2,0.3-0.3,0.4-0.4c2.6-4.1,4.5-8.5,5.3-13.1c0.1-0.7,0.3-1.2,0.4-2.1
	c0.1-0.2,0.1-0.3,0.1-0.4C236.8,203.5,236.6,198.5,236.5,193.3z"/>
<path class="st1" d="M220.2,20.2c-1.8-0.4-3.6-1-5.4-1.3c-3.7-0.7-7.4-1.3-11.2-1.7c-4.1-0.4-8.3-0.8-12.4-1
	c-4.8-0.2-9.6-0.4-14.4-0.4c-8.2-0.1-16.4-0.2-24.6-0.2c-3.8,0-7.6,0.1-11.4,0.2c-3.7,0.1-7.5,0.2-11.2,0.4
	c-8.3,0.7-16.7,1.3-24.8,3.7c-3.6,1.1-7,2.5-9.9,5c-3.3,2.7-5.5,6.3-6.7,10.6c-1.7,6.1-1.7,12.4-1.4,18.6c0.2,3.7,0.8,7.4,1.5,11.1
	c0.8,4,2.9,7.5,5.8,10.1c0.1,0.1,0.1,0.2,0.1,0.3c-1.7-0.7-3.4-1.5-5.1-2.3c-0.1-0.1-0.2-0.1-0.4-0.3c-1.6-1.5-3-3-4.4-4.6
	c-0.6-0.7-1.1-1.6-1.7-2.5c-0.6-1.8-1.4-3.6-1.7-5.3c-0.6-2.8-0.9-5.8-1.3-8.6c0-0.1,0-0.2,0-0.5c0.1-4.7,0.1-9.1,0.2-13.5
	c0-0.1,0-0.2,0.1-0.5c0.6-4.5,1.5-8.5,3.8-12.1c0.3-0.5,0.6-1,0.9-1.5c0.1-0.1,0.2-0.2,0.3-0.4c1.3-1.3,2.6-2.4,3.8-3.6
	c0.1-0.1,0.2-0.1,0.4-0.2c1.7-0.9,3.2-1.8,4.8-2.4c2.5-1,5.1-1.7,7.7-2.5c0.1,0,0.2,0,0.5,0c4.3-0.7,8.4-1.3,12.5-2
	c0.1,0,0.2,0,0.5,0c4.3-0.3,8.4-0.7,12.5-1c0.8,0,1.6,0.1,2.6,0c1.8-0.1,3.4-0.2,5-0.2c0.9,0,1.7,0,2.6-0.1c1-0.1,1.9-0.1,2.7-0.2
	c0,0,0.1,0,0.2,0c4.3,0,8.5,0,12.7-0.1c0,0,0.1,0,0.3,0c4.3,0,8.4,0,12.5,0.1c0.1,0,0.2,0,0.5,0.1c1.7,0,3.2,0,4.7,0.1
	c1,0,1.8,0,2.8,0c1.7,0,3.3,0.1,4.8,0.1c0.1,0,0.2,0,0.5,0c1.1,0.1,2.1,0.1,3.1,0.1c3.1,0.2,6.3,0.3,9.4,0.5c0.1,0,0.2,0,0.5,0
	c1.1,0.1,2.1,0.2,3,0.3c3.2,0.4,6.3,0.9,9.5,1.3c0.1,0.1,0.2,0.1,0.5,0.2c3.3,1,6.5,1.8,9.6,2.8c1,0.3,1.9,0.9,2.9,1.2
	c0.1,0.1,0.2,0.1,0.4,0.3C219,19.3,219.6,19.7,220.2,20.2z"/>
<path class="st1" d="M126.4,92.6c-0.1,8.3-0.2,16.3-0.2,24.4c0,2.7,0.1,5.4,0.2,8c0.1,3.6,0.1,7.1,0.2,10.6
	c0.2,4.7,0.5,9.4,0.9,14.1c0.8,9.6,1.9,19,4.6,28.2c1.6,5.2,3.8,10,7.2,14.1c0.5,0.7,1.2,1.3,1.7,2c-0.2,0.1-0.3,0.1-0.6,0.1
	c-1.5-0.8-2.8-1.4-4.1-2.1c-0.2-0.2-0.5-0.4-0.8-0.8c-1.7-1.7-3.3-3.3-4.8-5c-1.1-1.3-1.9-2.7-2.8-4.1c-0.1-0.2-0.2-0.5-0.4-1
	c-0.6-1.2-1-2.2-1.5-3.3c0-0.1,0-0.2-0.1-0.4c-0.7-2.2-1.3-4.2-1.9-6.2c-0.6-2.4-1.2-4.9-1.7-7.4c0-0.1,0-0.2,0-0.4
	c-0.6-4.6-1.2-8.9-1.8-13.4c0-0.2,0-0.4-0.1-0.8c-0.2-2.9-0.4-5.8-0.6-8.6c-0.1-1.6-0.2-3.1-0.4-4.8c0-0.1,0-0.2,0-0.5
	c-0.1-4.7-0.3-9.1-0.4-13.6c0-0.1,0-0.2,0-0.5c0-0.5,0-0.9,0-1.2c0-0.4,0-0.9-0.1-1.4c-0.1-3.7-0.1-7.3-0.2-11c0-0.1,0.1-0.2,0-0.5
	c0-4.6-0.1-9-0.1-13.5c0-0.1,0.1-0.2,0.1-0.5c0-2.9,0.1-5.8,0.2-8.7c0-0.4,0-0.8-0.1-1.1c2.2,0.2,4.3,0.4,6.5,0.7
	c0.7,0.1,0.9,0.4,0.9,1.2C126.4,87.7,126.4,90.1,126.4,92.6z"/>
</svg>
